<?xml version="1.0" encoding="UTF-8" standalone="no"?>
<svg
    version="1.1"
    width="257.16864"
    height="300"
    xmlns="http://www.w3.org/2000/svg"
    xmlns:xlink="http://www.w3.org/1999/xlink"
    xmlns:svg="http://www.w3.org/2000/svg"
>
    <defs>
        <linearGradient
            x1="85.84404"
            y1="32.364006"
            x2="190.66393"
            y2="244.15468"
            id="surrealDBLinearGradient1"
            gradientTransform="scale(0.92586734, 1.0800683)"
            gradientUnits="userSpaceOnUse"
        >
            <stop stop-color="#ff00a0" offset="0%" id="stop1" />
            <stop stop-color="#9600ff" offset="100%" id="stop2" />
        </linearGradient>
        <linearGradient
            xlink:href="#surrealDBLinearGradient1"
            id="linearGradient1"
            gradientUnits="userSpaceOnUse"
            gradientTransform="scale(0.93009392, 1.0849988)"
            x1="85.84404"
            y1="32.364006"
            x2="190.66393"
            y2="244.15468"
        />
    </defs>
    <path id="path1" style="fill: url(#linearGradient1); fill-opacity:1" d="M 128.58432,0 0,71.057278 V 228.94076 L 128.58432,300 257.16864,228.97215 V 71.057278 Z m 0,15.798354 114.28693,63.158101 -0.0313,142.087085 L 128.58432,284.20165 14.297393,221.04354 V 78.956455 Z m 0,15.766962 C 118.69557,37.045457 35.880453,82.813633 28.563394,86.824241 V 213.1738 l 14.297393,8.14443 V 94.723417 C 50.484,90.498503 128.58432,47.361708 128.58432,47.361708 149.9232,59.17922 192.93836,82.936521 214.30785,94.723417 V 221.32019 l 14.26601,-8.14639 V 86.824241 Z m 0.002,31.594747 c -10.62352,5.87814 -61.966007,34.257928 -71.426138,39.462527 5.008389,2.77468 71.426138,41.02039 71.426138,41.02039 l 71.42418,-41.02039 c 0,0 -47.61609,-26.308336 -71.42418,-39.462527 z m 0,15.766961 42.86079,23.695566 -42.86079,24.73546 -42.860782,-24.73546 z m 71.42418,37.176756 -71.42418,43.33756 -71.426138,-41.32843 v 110.27651 l 14.299355,8.14443 v -90.43047 l 57.126783,29.13239 57.12483,-31.14152 v 90.43244 l 14.29935,-8.1464 z" />
</svg>
